<svg xmlns="http://www.w3.org/2000/svg" viewBox="0 0 480 640" role="img" aria-label="Kenji portrait">
  <rect width="480" height="640" fill="#f4f1ea"/>
  <circle cx="240" cy="183" r="112" fill="#f0c19a"/>
  <path d="M130 248c19-102 68-154 139-145 59 8 88 52 82 139-54-30-113-32-221 6z" fill="#25201c"/>
  <path d="M126 640c16-142 78-222 114-222s98 80 114 222z" fill="#334155"/>
  <path d="M141 468h198v172H141z" fill="#f8fafc"/>
  <path d="M145 468l95 80 95-80v172H145z" fill="#334155" opacity=".9"/>
  <circle cx="198" cy="224" r="12" fill="#221b16"/>
  <circle cx="284" cy="224" r="12" fill="#221b16"/>
  <path d="M205 276c24 15 48 15 72 0" fill="none" stroke="#87533a" stroke-width="9" stroke-linecap="round"/>
  <path d="M353 120h58v21h-58z" fill="#b91c1c"/>
  <path d="M382 92v76" stroke="#b91c1c" stroke-width="18" stroke-linecap="round"/>
  <text x="240" y="584" text-anchor="middle" font-family="serif" font-size="42" fill="#1f2937">Kenji</text>
</svg>
