<svg xmlns="http://www.w3.org/2000/svg" viewBox="0 0 360 720" role="img" aria-label="Sakura sprite">
  <rect width="360" height="720" fill="none"/>
  <path d="M96 704c12-162 51-284 84-284s72 122 84 284z" fill="#f08ab0"/>
  <path d="M120 448h120l34 256H86z" fill="#f6c6d8"/>
  <circle cx="180" cy="214" r="94" fill="#ffd6d6"/>
  <path d="M84 278c11-125 61-194 123-181 53 11 79 64 69 164-42-30-98-38-192 17z" fill="#5b3b2c"/>
  <circle cx="148" cy="205" r="10" fill="#40302d"/>
  <circle cx="218" cy="205" r="10" fill="#40302d"/>
  <path d="M154 247c18 17 38 17 57 0" fill="none" stroke="#9f4d58" stroke-width="8" stroke-linecap="round"/>
  <path d="M268 118l18 24 29-9-17 25 17 25-29-9-18 24v-30l-29-10 29-10z" fill="#f7a7bd"/>
</svg>
