<svg xmlns="http://www.w3.org/2000/svg" viewBox="0 0 1280 720">
  <defs>
    <linearGradient id="cr" x1="0" y1="0" x2="0" y2="1">
      <stop offset="0%" stop-color="#87CEEB"/>
      <stop offset="40%" stop-color="#B0E0E6"/>
      <stop offset="100%" stop-color="#90CAF9"/>
    </linearGradient>
  </defs>
  <rect width="1280" height="720" fill="url(#cr)"/>
  <g fill="#FFF" opacity="0.4">
    <circle cx="200" cy="100" r="40"/><circle cx="400" cy="80" r="50"/>
    <circle cx="900" cy="120" r="45"/><circle cx="1100" cy="90" r="35"/>
  </g>
  <ellipse cx="640" cy="500" rx="700" ry="250" fill="#4CAF50"/>
  <ellipse cx="640" cy="550" rx="700" ry="200" fill="#388E3C"/>
  <rect x="580" y="350" width="120" height="300" fill="#795548"/>
  <circle cx="640" cy="320" r="80" fill="#2E7D32"/>
  <circle cx="600" cy="300" r="60" fill="#388E3C"/>
  <circle cx="680" cy="310" r="65" fill="#2E7D32"/>
  <circle cx="640" cy="280" r="55" fill="#43A047"/>
  <rect x="600" y="520" width="80" height="12" fill="#9E9E9E"/>
  <rect x="500" y="530" width="280" height="8" fill="#9E9E9E"/>
  <rect x="350" y="540" width="200" height="6" fill="#9E9E9E"/>
  <rect x="730" y="540" width="200" height="6" fill="#9E9E9E"/>
  <g>
    <rect x="200" y="450" width="100" height="120" rx="4" fill="#8D6E63"/>
    <rect x="210" y="460" width="35" height="25" rx="2" fill="#FFD54F" opacity="0.4"/>
    <rect x="255" y="460" width="35" height="25" rx="2" fill="#FFD54F" opacity="0.4"/>
  </g>
  <g>
    <rect x="980" y="440" width="120" height="130" rx="4" fill="#8D6E63"/>
    <rect x="995" y="450" width="40" height="30" rx="2" fill="#FFD54F" opacity="0.4"/>
    <rect x="1045" y="450" width="40" height="30" rx="2" fill="#FFD54F" opacity="0.4"/>
    <rect x="995" y="490" width="40" height="30" rx="2" fill="#FFD54F" opacity="0.4"/>
    <rect x="1045" y="490" width="40" height="30" rx="2" fill="#FFD54F" opacity="0.4"/>
  </g>
  <g fill="#4CAF50">
    <circle cx="150" cy="520" r="40" opacity="0.7"/>
    <circle cx="1130" cy="510" r="45" opacity="0.7"/>
  </g>
  <g fill="#795548">
    <rect x="155" y="480" width="8" height="80"/>
    <rect x="1135" y="470" width="8" height="80"/>
  </g>
  <g fill="#2E7D32" opacity="0.8">
    <circle cx="155" cy="470" r="30"/>
    <circle cx="1135" cy="460" r="35"/>
  </g>
  <rect x="0" y="650" width="1280" height="70" fill="#2E7D32"/>
  <g fill="#4CAF50" opacity="0.3">
    <circle cx="100" cy="600" r="25"/><circle cx="300" cy="610" r="20"/>
    <circle cx="500" cy="595" r="22"/><circle cx="780" cy="605" r="18"/>
    <circle cx="1000" cy="598" r="24"/><circle cx="1180" cy="608" r="19"/>
  </g>
</svg>