<svg xmlns="http://www.w3.org/2000/svg" viewBox="0 0 1280 720">
  <defs>
    <linearGradient id="fsky" x1="0" y1="0" x2="0" y2="1">
      <stop offset="0%" stop-color="#0D0D2B"/>
      <stop offset="40%" stop-color="#1A1A3E"/>
      <stop offset="100%" stop-color="#2D1B4E"/>
    </linearGradient>
    <radialGradient id="lantern" cx="0.5" cy="0.5" r="0.5">
      <stop offset="0%" stop-color="#FFD700" stop-opacity="0.9"/>
      <stop offset="50%" stop-color="#FF8C00" stop-opacity="0.4"/>
      <stop offset="100%" stop-color="#FF4500" stop-opacity="0"/>
    </radialGradient>
  </defs>
  <rect width="1280" height="720" fill="url(#fsky)"/>
  <g fill="#FFF" opacity="0.6">
    <circle cx="100" cy="50" r="1.5"/><circle cx="300" cy="80" r="1"/><circle cx="500" cy="40" r="1.5"/>
    <circle cx="700" cy="70" r="1"/><circle cx="900" cy="50" r="1.5"/><circle cx="1100" cy="90" r="1"/>
  </g>
  <g>
    <circle cx="150" cy="200" r="30" fill="url(#lantern)"/><ellipse cx="150" cy="210" rx="12" ry="15" fill="#FF6B35" opacity="0.8"/>
    <circle cx="350" cy="150" r="25" fill="url(#lantern)"/><ellipse cx="350" cy="158" rx="10" ry="13" fill="#FF6B35" opacity="0.8"/>
    <circle cx="550" cy="180" r="28" fill="url(#lantern)"/><ellipse cx="550" cy="189" rx="11" ry="14" fill="#FF6B35" opacity="0.8"/>
    <circle cx="750" cy="160" r="26" fill="url(#lantern)"/><ellipse cx="750" cy="168" rx="10" ry="13" fill="#FF6B35" opacity="0.8"/>
    <circle cx="950" cy="190" r="27" fill="url(#lantern)"/><ellipse cx="950" cy="199" rx="11" ry="14" fill="#FF6B35" opacity="0.8"/>
    <circle cx="1150" cy="170" r="24" fill="url(#lantern)"/><ellipse cx="1150" cy="178" rx="10" ry="12" fill="#FF6B35" opacity="0.8"/>
    <circle cx="250" cy="280" r="22" fill="url(#lantern)"/><ellipse cx="250" cy="287" rx="9" ry="11" fill="#FF6B35" opacity="0.7"/>
    <circle cx="650" cy="250" r="24" fill="url(#lantern)"/><ellipse cx="650" cy="258" rx="10" ry="12" fill="#FF6B35" opacity="0.7"/>
    <circle cx="1050" cy="260" r="23" fill="url(#lantern)"/><ellipse cx="1050" cy="268" rx="9" ry="12" fill="#FF6B35" opacity="0.7"/>
  </g>
  <rect x="0" y="500" width="1280" height="220" fill="#1A0A2E"/>
  <g fill="#2D1B4E">
    <rect x="100" y="480" width="180" height="240" rx="4"/>
    <rect x="400" y="460" width="200" height="260" rx="4"/>
    <rect x="700" y="470" width="160" height="250" rx="4"/>
    <rect x="1000" y="490" width="180" height="230" rx="4"/>
  </g>
  <g fill="#FFD700" opacity="0.3">
    <rect x="120" y="500" width="30" height="20" rx="2"/><rect x="170" y="500" width="30" height="20" rx="2"/>
    <rect x="420" y="480" width="35" height="20" rx="2"/><rect x="475" y="480" width="35" height="20" rx="2"/>
    <rect x="720" y="490" width="28" height="20" rx="2"/><rect x="768" y="490" width="28" height="20" rx="2"/>
    <rect x="1020" y="510" width="30" height="20" rx="2"/><rect x="1070" y="510" width="30" height="20" rx="2"/>
  </g>
  <g fill="#FFD700" opacity="0.15">
    <circle cx="200" cy="600" r="80"/><circle cx="500" cy="580" r="90"/><circle cx="800" cy="590" r="85"/><circle cx="1100" cy="610" r="75"/>
  </g>
  <rect x="300" y="560" width="200" height="30" rx="4" fill="#8B4513"/>
  <rect x="780" y="550" width="150" height="30" rx="4" fill="#8B4513"/>
  <rect x="0" y="700" width="1280" height="20" fill="#0D0D2B"/>
</svg>