<svg xmlns="http://www.w3.org/2000/svg" viewBox="0 0 1920 1080">
  <defs>
    <linearGradient id="lib" x1="0" y1="0" x2="0" y2="1">
      <stop offset="0%" stop-color="#2C1810"/>
      <stop offset="100%" stop-color="#1a0f0a"/>
    </linearGradient>
    <radialGradient id="glow" cx="0.5" cy="0.3" r="0.4">
      <stop offset="0%" stop-color="#FFD700" stop-opacity="0.15"/>
      <stop offset="100%" stop-color="transparent"/>
    </radialGradient>
  </defs>
  <rect width="1920" height="1080" fill="url(#lib)"/>
  <rect width="1920" height="1080" fill="url(#glow)"/>
  <rect x="50" y="100" width="200" height="880" fill="#3E2723" rx="5"/>
  <rect x="60" y="120" width="30" height="40" fill="#8D6E63"/><rect x="100" y="120" width="30" height="40" fill="#A1887F"/>
  <rect x="140" y="120" width="30" height="40" fill="#6D4C41"/><rect x="180" y="120" width="30" height="40" fill="#8D6E63"/>
  <rect x="300" y="100" width="200" height="880" fill="#3E2723" rx="5"/>
  <rect x="310" y="120" width="30" height="40" fill="#5D4037"/><rect x="350" y="120" width="30" height="40" fill="#795548"/>
  <rect x="390" y="120" width="30" height="40" fill="#6D4C41"/><rect x="430" y="120" width="30" height="40" fill="#A1887F"/>
  <rect x="1370" y="100" width="200" height="880" fill="#3E2723" rx="5"/>
  <rect x="1620" y="100" width="200" height="880" fill="#3E2723" rx="5"/>
  <ellipse cx="960" cy="100" rx="400" ry="80" fill="#4E342E"/>
  <circle cx="960" cy="200" r="60" fill="#FFD700" opacity="0.3"/>
  <circle cx="960" cy="200" r="30" fill="#FFD700" opacity="0.5"/>
  <rect x="0" y="900" width="1920" height="180" fill="#1a0f0a"/>
  <text x="960" y="1000" text-anchor="middle" fill="#8D6E63" font-size="48" font-family="serif">The Great Library</text>
</svg>