<svg xmlns="http://www.w3.org/2000/svg" viewBox="0 0 1280 720">
  <defs>
    <linearGradient id="lib" x1="0" y1="0" x2="0" y2="1">
      <stop offset="0%" stop-color="#2C1810"/>
      <stop offset="50%" stop-color="#3E2723"/>
      <stop offset="100%" stop-color="#4E342E"/>
    </linearGradient>
  </defs>
  <rect width="1280" height="720" fill="url(#lib)"/>
  <rect x="50" y="100" width="1180" height="520" rx="8" fill="#1A0E08" opacity="0.5"/>
  <g fill="#5D4037">
    <rect x="80" y="120" width="60" height="480" rx="2"/><rect x="160" y="120" width="60" height="480" rx="2"/>
    <rect x="240" y="120" width="60" height="480" rx="2"/><rect x="320" y="120" width="60" height="480" rx="2"/>
    <rect x="900" y="120" width="60" height="480" rx="2"/><rect x="980" y="120" width="60" height="480" rx="2"/>
    <rect x="1060" y="120" width="60" height="480" rx="2"/><rect x="1140" y="120" width="60" height="480" rx="2"/>
  </g>
  <g>
    <rect x="85" y="130" width="50" height="30" rx="2" fill="#C62828"/><rect x="165" y="170" width="50" height="25" rx="2" fill="#1565C0"/>
    <rect x="245" y="140" width="50" height="35" rx="2" fill="#2E7D32"/><rect x="325" y="180" width="50" height="28" rx="2" fill="#F57F17"/>
    <rect x="905" y="150" width="50" height="32" rx="2" fill="#6A1B9A"/><rect x="985" y="130" width="50" height="26" rx="2" fill="#00695C"/>
    <rect x="1065" y="160" width="50" height="30" rx="2" fill="#BF360C"/><rect x="1145" y="140" width="50" height="24" rx="2" fill="#283593"/>
  </g>
  <rect x="420" y="350" width="440" height="280" rx="4" fill="#3E2723"/>
  <rect x="440" y="370" width="400" height="240" rx="2" fill="#4E342E"/>
  <circle cx="640" cy="420" r="40" fill="#FFD54F" opacity="0.15"/>
  <circle cx="640" cy="420" r="20" fill="#FFD54F" opacity="0.1"/>
  <rect x="580" y="490" width="120" height="8" rx="4" fill="#8D6E63"/>
  <rect x="600" y="510" width="80" height="60" rx="2" fill="#5D4037"/>
  <rect x="0" y="620" width="1280" height="100" fill="#3E2723"/>
  <g fill="#FFD54F" opacity="0.1">
    <circle cx="200" cy="300" r="60"/><circle cx="1080" cy="300" r="60"/>
    <circle cx="640" cy="200" r="80"/>
  </g>
</svg>