<svg xmlns="http://www.w3.org/2000/svg" viewBox="0 0 1920 1080">
  <defs>
    <linearGradient id="nightsky" x1="0" y1="0" x2="0" y2="1">
      <stop offset="0%" stop-color="#0a0a2e"/>
      <stop offset="100%" stop-color="#1a1a3e"/>
    </linearGradient>
    <radialGradient id="moon" cx="0.2" cy="0.15" r="0.08">
      <stop offset="0%" stop-color="#F5F5DC"/>
      <stop offset="80%" stop-color="#F5F5DC" stop-opacity="0.3"/>
      <stop offset="100%" stop-color="transparent"/>
    </radialGradient>
  </defs>
  <rect width="1920" height="1080" fill="url(#nightsky)"/>
  <circle cx="384" cy="162" r="150" fill="url(#moon)"/>
  <circle cx="200" cy="100" r="2" fill="white"/><circle cx="500" cy="200" r="1.5" fill="white"/>
  <circle cx="800" cy="80" r="2" fill="white"/><circle cx="1100" cy="150" r="1.5" fill="white"/>
  <circle cx="1400" cy="100" r="2" fill="white"/><circle cx="1600" cy="250" r="1.5" fill="white"/>
  <circle cx="300" cy="300" r="1" fill="white"/><circle cx="700" cy="250" r="2" fill="white"/>
  <circle cx="1200" cy="200" r="1" fill="white"/><circle cx="900" cy="300" r="1.5" fill="white"/>
  <rect x="0" y="700" width="1920" height="380" fill="#1a1a2e"/>
  <rect x="100" y="400" width="600" height="300" fill="#2a2a4e" rx="10"/>
  <rect x="150" y="430" width="120" height="100" fill="#3a3a5e" rx="5"/>
  <rect x="320" y="430" width="120" height="100" fill="#3a3a5e" rx="5"/>
  <rect x="490" y="430" width="120" height="100" fill="#3a3a5e" rx="5"/>
  <rect x="150" y="560" width="500" height="8" fill="#FFD700" opacity="0.3"/>
  <text x="960" y="900" text-anchor="middle" fill="#4a4a6e" font-size="48" font-family="serif">Studio Night</text>
</svg>