<svg xmlns="http://www.w3.org/2000/svg" viewBox="0 0 512 512" role="img" aria-label="Monogatari">
  <rect width="512" height="512" fill="#F4F0E8"/>
  <rect x="64" y="64" width="384" height="384" rx="96" fill="#17181C"/>
  <path d="M143 190c40-13 78-2 113 31 35-33 73-44 113-31v143c-41-12-79-1-113 32-34-33-72-44-113-32V190Z" fill="#F4F0E8"/>
  <path d="M256 221v144c-34-33-72-44-113-32V190c40-13 78-2 113 31Z" fill="#E7E0D4"/>
  <path d="M256 221v144" fill="none" stroke="#17181C" stroke-width="10" stroke-linecap="round"/>
  <path d="M256 176v32m0-32-35 23m35-23 35 23" fill="none" stroke="#E4573D" stroke-width="11" stroke-linecap="round"/>
  <circle cx="256" cy="156" r="18" fill="#E4573D"/>
</svg>
